<?xml version="1.0" encoding="UTF-8" standalone="no"?> <svg width="512" height="512" viewBox="0 0 512 512" fill="none" xmlns="http://www.w3.org/2000/svg">
<path fill-rule="evenodd" clip-rule="evenodd" d="M128 32C74.9807 32 32 74.9807 32 128V384C32 437.019 74.9807 480 128 480H384C437.019 480 480 437.019 480 384V128C480 74.9807 437.019 32 384 32H128ZM175.999 116.001C169.372 107.165 156.836 105.374 147.999 112.001C139.163 118.629 137.372 131.165 143.999 140.001L230.999 256.001L143.999 372.001C137.372 380.838 139.163 393.374 147.999 400.001C156.836 406.629 169.372 404.838 175.999 396.001L255.999 289.335L335.999 396.001C342.627 404.838 355.163 406.629 363.999 400.001C372.836 393.374 374.627 380.838 367.999 372.001L280.999 256.001L367.999 140.001C374.627 131.165 372.836 118.629 363.999 112.001C355.163 105.374 342.627 107.165 335.999 116.001L255.999 222.668L175.999 116.001Z" fill="black"/>
</svg>


